<?xml version="1.0" encoding="UTF-8" standalone="no"?>
<!-- Created with Inkscape (http://www.inkscape.org/) -->

<svg
   xmlns:dc="http://purl.org/dc/elements/1.1/"
   xmlns:cc="http://creativecommons.org/ns#"
   xmlns:rdf="http://www.w3.org/1999/02/22-rdf-syntax-ns#"
   xmlns:svg="http://www.w3.org/2000/svg"
   xmlns="http://www.w3.org/2000/svg"
   xmlns:sodipodi="http://sodipodi.sourceforge.net/DTD/sodipodi-0.dtd"
   xmlns:inkscape="http://www.inkscape.org/namespaces/inkscape"
   width="64"
   height="64"
   viewBox="0 0 64.000001 64.000001"
   id="svg2"
   version="1.1"
   inkscape:version="0.91 r13725"
   sodipodi:docname="SpeechBubble.svg"
   inkscape:export-filename="C:\Users\Pontus\Projects\Semaeopus\CodeKidsPlatformer\Unity\Assets\UI\SpeechBubble.png"
   inkscape:export-xdpi="180"
   inkscape:export-ydpi="180">
  <defs
     id="defs4">
    <filter
       inkscape:collect="always"
       style="color-interpolation-filters:sRGB"
       id="filter6213"
       x="-0.022430106"
       width="1.0448602"
       y="-0.023182298"
       height="1.0463646">
      <feGaussianBlur
         inkscape:collect="always"
         stdDeviation="0.49029511"
         id="feGaussianBlur6215" />
    </filter>
  </defs>
  <sodipodi:namedview
     id="base"
     pagecolor="#ffffff"
     bordercolor="#666666"
     borderopacity="1.0"
     inkscape:pageopacity="0.0"
     inkscape:pageshadow="2"
     inkscape:zoom="7.9195959"
     inkscape:cx="19.211316"
     inkscape:cy="21.488363"
     inkscape:document-units="px"
     inkscape:current-layer="layer1"
     showgrid="true"
     units="px"
     inkscape:window-width="1920"
     inkscape:window-height="997"
     inkscape:window-x="-9"
     inkscape:window-y="-9"
     inkscape:window-maximized="1">
    <inkscape:grid
       type="xygrid"
       id="grid4136"
       spacingx="4.0000001"
       spacingy="4.0000001"
       empspacing="8" />
  </sodipodi:namedview>
  <metadata
     id="metadata7">
    <rdf:RDF>
      <cc:Work
         rdf:about="">
        <dc:format>image/svg+xml</dc:format>
        <dc:type
           rdf:resource="http://purl.org/dc/dcmitype/StillImage" />
        <dc:title />
      </cc:Work>
    </rdf:RDF>
  </metadata>
  <g
     inkscape:label="Layer 1"
     inkscape:groupmode="layer"
     id="layer1"
     transform="translate(0,-988.36216)">
    <path
       style="opacity:1;fill:#eaeae7;fill-opacity:1;stroke:#555753;stroke-width:1;stroke-linecap:round;stroke-linejoin:round;stroke-miterlimit:4;stroke-dasharray:none;stroke-opacity:1"
       d="m 14,992.36218 36,0 c 5.54,0 10,4.46 10,10.00002 l 0,28 c 0,5.54 -4.46,10 -10,10 l -9,0 c 0,0 -1,4 10.652288,8.8388 C 36,1048.3622 32,1040.3622 32,1040.3622 l -18,0 c -5.54,0 -10,-4.46 -10,-10 l 0,-28 c 0,-5.54002 4.46,-10.00002 10,-10.00002 z"
       id="rect4138"
       inkscape:connector-curvature="0"
       sodipodi:nodetypes="ssssscccssss"
       inkscape:export-filename="C:\Users\Pontus\Projects\Semaeopus\CodeKidsPlatformer\Unity\Assets\UI\rect4138.png"
       inkscape:export-xdpi="180"
       inkscape:export-ydpi="180" />
    <path
       style="opacity:1;fill:#ffffff;fill-opacity:1;stroke:none;stroke-width:1;stroke-linecap:round;stroke-linejoin:round;stroke-miterlimit:4;stroke-dasharray:none;stroke-opacity:1;filter:url(#filter6213)"
       d="M 13.572266,994.375 C 6.5573262,994.57447 4.862674,1002.8215 6,1008.4141 c 0.7585136,8.5049 -1.4573965,17.5503 0.9648438,25.7734 4.3490032,7.2568 14.3012142,3.065 21.0800782,4.1738 5.793291,-1.6501 7.98223,5.6594 12.927734,6.5489 -2.745881,-2.1215 -2.727689,-7.7984 2.027344,-6.5489 5.778216,0.9874 14.705069,0.022 14.986328,-7.5566 -0.475418,-10.4747 0.965266,-21.2234 -0.609375,-31.5547 -3.835599,-8.13842 -14.51237,-3.8168 -21.429687,-4.88867 -7.458256,0.009 -14.917074,-0.0185 -22.375,0.0137 z"
       id="path5577"
       inkscape:connector-curvature="0" />
  </g>
</svg>
